:FULLY-SPECIFIED
:FORCE-ALL-JOINTS-BE-3DOF
:DEGREES
238
root 5.63416 15.6805 -25.8492 10.3927 23.593 -4.71215
lfemur -35.8396 30.6174 -4.6608
ltibia 50.658 0 0
lfoot -14.3766 2.01369 0
ltoes 2.13653 0 0
rfemur -22.8356 -13.4226 4.15417
rtibia 45.3617 0 0
rfoot -17.8408 -0.366893 0
rtoes 40.5256 0 0
lowerback 1.53059 -2.09952 1.30642
upperback -0.589044 -2.74265 2.0626
thorax -1.4086 -1.37114 1.45863
lowerneck -11.3226 -2.70415 0.0405114
upperneck 1.33653 -3.6367 0.458383
head 2.42072 -1.794 -0.0582212
lclavicle 4.85604e-15 -1.09048e-14 0
lhumerus -53.1091 -37.3551 120.197
lradius 60.8747 0 0
lwrist 19.1154 0 0
lhand 11.6352 14.9168 0
lfingers 7.12502 0 0
lthumb 36.6704 41.0207 0
rclavicle 4.85604e-15 -1.09048e-14 0
rhumerus -36.3007 -2.56455 -68.8347
rradius 89.8142 0 0
rwrist -9.94133 0 0
rhand 28.6809 -20.9202 0
rfingers 7.12502 0 0
rthumb 51.0754 -750.416 0
239
root 5.73532 15.7142 -25.8391 10.3344 25.2223 -4.44925
lfemur -35.7773 29.9944 -5.50491
ltibia 50.1878 0 0
lfoot -14.5085 1.30596 0
ltoes 5.5448 0 0
rfemur -22.4668 -12.2408 3.95737
rtibia 46.4137 0 0
rfoot -15.4667 -1.34359 0
rtoes 37.5309 0 0
lowerback 1.53669 -2.12835 1.14906
upperback -0.599914 -2.78326 2.11301
thorax -1.41141 -1.38967 1.59987
lowerneck -11.2198 -3.04518 -0.095348
upperneck 1.41353 -4.07479 0.47409
head 2.43438 -2.01267 -0.053185
lclavicle 2.81613e-15 -9.93923e-15 0
lhumerus -52.9833 -37.1214 120.127
lradius 60.9092 0 0
lwrist 19.1748 0 0
lhand 11.3361 14.7351 0
lfingers 7.12502 0 0
lthumb 36.3868 40.9069 0
rclavicle 2.81613e-15 -9.93923e-15 0
rhumerus -36.7207 -2.82232 -68.6418
rradius 86.5229 0 0
rwrist -6.36373 0 0
rhand 25.6141 -19.6327 0
rfingers 7.12502 0 0
rthumb 48.2654 -750.482 0
240
root 5.83647 15.748 -25.8289 10.2761 26.8516 -4.18636
lfemur -35.715 29.3714 -6.34901
ltibia 49.7175 0 0
lfoot -14.6404 0.598226 0
ltoes 8.95307 0 0
rfemur -22.098 -11.0589 3.76057
rtibia 47.4657 0 0
rfoot -13.0926 -2.32028 0
rtoes 34.5362 0 0
lowerback 1.54278 -2.15718 0.991708
upperback -0.610785 -2.82387 2.16341
thorax -1.41423 -1.40821 1.74111
lowerneck -11.117 -3.38621 -0.231207
upperneck 1.49053 -4.51287 0.489797
head 2.44805 -2.23133 -0.0481488
lclavicle 7.76224e-16 -8.9737e-15 0
lhumerus -52.8575 -36.8877 120.057
lradius 60.9437 0 0
lwrist 19.2343 0 0
lhand 11.0369 14.5534 0
lfingers 7.12502 0 0
lthumb 36.1031 40.7931 0
rclavicle 7.76224e-16 -8.9737e-15 0
rhumerus -37.1406 -3.08009 -68.4488
rradius 83.2316 0 0
rwrist -2.78614 0 0
rhand 22.5473 -18.3452 0
rfingers 7.12502 0 0
rthumb 45.4554 -750.547 0
241
root 5.93763 15.7817 -25.8188 10.2178 28.4809 -3.92346
lfemur -35.6527 28.7484 -7.19312
ltibia 49.2473 0 0
lfoot -14.7724 -0.109504 0
ltoes 12.3613 0 0
rfemur -21.7292 -9.87701 3.56377
rtibia 48.5177 0 0
rfoot -10.7185 -3.29697 0
rtoes 31.5415 0 0
lowerback 1.54888 -2.18601 0.834353
upperback -0.621655 -2.86448 2.21381
thorax -1.41705 -1.42674 1.88235
lowerneck -11.0142 -3.72723 -0.367067
upperneck 1.56754 -4.95096 0.505505
head 2.46172 -2.45 -0.0431126
lclavicle -1.26369e-15 -8.00818e-15 0
lhumerus -52.7317 -36.6541 119.987
lradius 60.9782 0 0
lwrist 19.2937 0 0
lhand 10.7377 14.3718 0
lfingers 7.12502 0 0
lthumb 35.8195 40.6793 0
rclavicle -1.26369e-15 -8.00818e-15 0
rhumerus -37.5606 -3.33787 -68.2558
rradius 79.9403 0 0
rwrist 0.791457 0 0
rhand 19.4805 -17.0578 0
rfingers 7.12502 0 0
rthumb 42.6454 -750.613 0
242
root 6.03879 15.8155 -25.8087 10.1595 30.1102 -3.66056
lfemur -35.5904 28.1254 -8.03723
ltibia 48.7771 0 0
lfoot -14.9043 -0.817235 0
ltoes 15.7696 0 0
rfemur -21.3604 -8.69513 3.36697
rtibia 49.5697 0 0
rfoot -8.34435 -4.27367 0
rtoes 28.5468 0 0
lowerback 1.55498 -2.21484 0.676998
upperback -0.632525 -2.90509 2.26421
thorax -1.41987 -1.44527 2.02359
lowerneck -10.9113 -4.06826 -0.502926
upperneck 1.64454 -5.38905 0.521212
head 2.47538 -2.66867 -0.0380764
lclavicle -3.3036e-15 -7.04265e-15 0
lhumerus -52.6059 -36.4204 119.917
lradius 61.0127 0 0
lwrist 19.3532 0 0
lhand 10.4385 14.1901 0
lfingers 7.12502 0 0
lthumb 35.5359 40.5655 0
rclavicle -3.3036e-15 -7.04265e-15 0
rhumerus -37.9806 -3.59564 -68.0628
rradius 76.649 0 0
rwrist 4.36905 0 0
rhand 16.4137 -15.7703 0
rfingers 7.12502 0 0
rthumb 39.8354 -750.678 0
243
root 6.13994 15.8492 -25.7986 10.1012 31.7395 -3.39767
lfemur -35.5281 27.5025 -8.88133
ltibia 48.3069 0 0
lfoot -15.0362 -1.52497 0
ltoes 19.1779 0 0
rfemur -20.9915 -7.51325 3.17017
rtibia 50.6216 0 0
rfoot -5.97025 -5.25036 0
rtoes 25.5521 0 0
lowerback 1.56107 -2.24368 0.519642
upperback -0.643396 -2.94569 2.31462
thorax -1.42268 -1.4638 2.16483
lowerneck -10.8085 -4.40929 -0.638786
upperneck 1.72154 -5.82713 0.53692
head 2.48905 -2.88734 -0.0330403
lclavicle -5.3435e-15 -6.07713e-15 0
lhumerus -52.48 -36.1867 119.848
lradius 61.0471 0 0
lwrist 19.4126 0 0
lhand 10.1393 14.0085 0
lfingers 7.12502 0 0
lthumb 35.2522 40.4516 0
rclavicle -5.3435e-15 -6.07713e-15 0
rhumerus -38.4005 -3.85342 -67.8699
rradius 73.3576 0 0
rwrist 7.94665 0 0
rhand 13.3469 -14.4828 0
rfingers 7.12502 0 0
rthumb 37.0254 -750.744 0
244
root 6.2411 15.883 -25.7885 10.0429 33.3688 -3.13477
lfemur -35.4658 26.8795 -9.72544
ltibia 47.8367 0 0
lfoot -15.1681 -2.2327 0
ltoes 22.5862 0 0
rfemur -20.6227 -6.33137 2.97337
rtibia 51.6736 0 0
rfoot -3.59614 -6.22706 0
rtoes 22.5573 0 0
lowerback 1.56717 -2.27251 0.362287
upperback -0.654266 -2.9863 2.36502
thorax -1.4255 -1.48233 2.30608
lowerneck -10.7057 -4.75032 -0.774645
upperneck 1.79855 -6.26522 0.552627
head 2.50271 -3.106 -0.0280041
lclavicle -7.38341e-15 -5.1116e-15 0
lhumerus -52.3542 -35.953 119.778
lradius 61.0816 0 0
lwrist 19.4721 0 0
lhand 9.84009 13.8268 0
lfingers 7.12502 0 0
lthumb 34.9686 40.3378 0
rclavicle -7.38341e-15 -5.1116e-15 0
rhumerus -38.8205 -4.11119 -67.6769
rradius 70.0663 0 0
rwrist 11.5242 0 0
rhand 10.2801 -13.1953 0
rfingers 7.12502 0 0
rthumb 34.2154 -750.809 0
245
root 6.34226 15.9167 -25.7784 9.98462 34.9981 -2.87187
lfemur -35.4035 26.2565 -10.5695
ltibia 47.3665 0 0
lfoot -15.3001 -2.94043 0
ltoes 25.9944 0 0
rfemur -20.2539 -5.1495 2.77657
rtibia 52.7256 0 0
rfoot -1.22204 -7.20375 0
rtoes 19.5626 0 0
lowerback 1.57327 -2.30134 0.204932
upperback -0.665136 -3.02691 2.41542
thorax -1.42832 -1.50086 2.44732
lowerneck -10.6029 -5.09134 -0.910505
upperneck 1.87555 -6.70331 0.568335
head 2.51638 -3.32467 -0.0229679
lclavicle -9.42332e-15 -4.14608e-15 0
lhumerus -52.2284 -35.7194 119.708
lradius 61.1161 0 0
lwrist 19.5315 0 0
lhand 9.54089 13.6452 0
lfingers 7.12502 0 0
lthumb 34.685 40.224 0
rclavicle -9.42332e-15 -4.14608e-15 0
rhumerus -39.2405 -4.36897 -67.4839
rradius 66.775 0 0
rwrist 15.1018 0 0
rhand 7.21328 -11.9079 0
rfingers 7.12502 0 0
rthumb 31.4054 -750.875 0
246
root 6.44341 15.9505 -25.7682 9.92633 36.6274 -2.60898
lfemur -35.3412 25.6335 -11.4137
ltibia 46.8962 0 0
lfoot -15.432 -3.64816 0
ltoes 29.4027 0 0
rfemur -19.8851 -3.96762 2.57977
rtibia 53.7776 0 0
rfoot 1.15207 -8.18044 0
rtoes 16.5679 0 0
lowerback 1.57936 -2.33017 0.0475767
upperback -0.676007 -3.06752 2.46582
thorax -1.43114 -1.5194 2.58856
lowerneck -10.5 -5.43237 -1.04636
upperneck 1.95256 -7.14139 0.584042
head 2.53005 -3.54334 -0.0179317
lclavicle -1.14632e-14 -3.18055e-15 0
lhumerus -52.1026 -35.4857 119.638
lradius 61.1506 0 0
lwrist 19.591 0 0
lhand 9.2417 13.4635 0
lfingers 7.12502 0 0
lthumb 34.4013 40.1102 0
rclavicle -1.14632e-14 -3.18055e-15 0
rhumerus -39.6604 -4.62674 -67.2909
rradius 63.4837 0 0
rwrist 18.6794 0 0
rhand 4.14647 -10.6204 0
rfingers 7.12502 0 0
rthumb 28.5954 -750.94 0
247
root 6.54457 15.9842 -25.7581 9.86803 38.2567 -2.34608
lfemur -35.2789 25.0105 -12.2578
ltibia 46.426 0 0
lfoot -15.5639 -4.35589 0
ltoes 32.811 0 0
rfemur -19.5163 -2.78574 2.38297
rtibia 54.8296 0 0
rfoot 3.52617 -9.15714 0
rtoes 13.5732 0 0
lowerback 1.58546 -2.359 -0.109779
upperback -0.686877 -3.10813 2.51623
thorax -1.43395 -1.53793 2.7298
lowerneck -10.3972 -5.7734 -1.18222
upperneck 2.02956 -7.57948 0.599749
head 2.54371 -3.76201 -0.0128955
lclavicle -1.35031e-14 -2.21503e-15 0
lhumerus -51.9768 -35.252 119.568
lradius 61.1851 0 0
lwrist 19.6504 0 0
lhand 8.94251 13.2818 0
lfingers 7.12502 0 0
lthumb 34.1177 39.9964 0
rclavicle -1.35031e-14 -2.21503e-15 0
rhumerus -40.0804 -4.88451 -67.098
rradius 60.1924 0 0
rwrist 22.257 0 0
rhand 1.07966 -9.33292 0
rfingers 7.12502 0 0
rthumb 25.7854 -751.006 0
248
root 6.64573 16.018 -25.748 9.80973 39.886 -2.08318
lfemur -35.2165 24.3875 -13.1019
ltibia 45.9558 0 0
lfoot -15.6959 -5.06362 0
ltoes 36.2192 0 0
rfemur -19.1475 -1.60387 2.18616
rtibia 55.8816 0 0
rfoot 5.90028 -10.1338 0
rtoes 10.5785 0 0
lowerback 1.59156 -2.38783 -0.267134
upperback -0.697747 -3.14874 2.56663
thorax -1.43677 -1.55646 2.87104
lowerneck -10.2944 -6.11442 -1.31808
upperneck 2.10656 -8.01757 0.615457
head 2.55738 -3.98067 -0.00785933
lclavicle -1.55431e-14 -1.2495e-15 0
lhumerus -51.851 -35.0184 119.498
lradius 61.2196 0 0
lwrist 19.7099 0 0
lhand 8.64331 13.1002 0
lfingers 7.12502 0 0
lthumb 33.8341 39.8826 0
rclavicle -1.55431e-14 -1.2495e-15 0
rhumerus -40.5004 -5.14229 -66.905
rradius 56.9011 0 0
rwrist 25.8346 0 0
rhand -1.98715 -8.04545 0
rfingers 7.12502 0 0
rthumb 22.9754 -751.071 0
249
root 6.74688 16.0517 -25.7379 9.75143 41.5153 -1.82029
lfemur -35.1542 23.7645 -13.946
ltibia 45.4856 0 0
lfoot -15.8278 -5.77135 0
ltoes 39.6275 0 0
rfemur -18.7787 -0.421989 1.98936
rtibia 56.9336 0 0
rfoot 8.27438 -11.1105 0
rtoes 7.58383 0 0
lowerback 1.59765 -2.41666 -0.424489
upperback -0.708618 -3.18935 2.61703
thorax -1.43959 -1.57499 3.01228
lowerneck -10.1916 -6.45545 -1.45394
upperneck 2.18357 -8.45565 0.631164
head 2.57105 -4.19934 -0.00282314
lclavicle -1.7583e-14 -2.83979e-16 0
lhumerus -51.7252 -34.7847 119.428
lradius 61.2541 0 0
lwrist 19.7693 0 0
lhand 8.34412 12.9185 0
lfingers 7.12502 0 0
lthumb 33.5504 39.7688 0
rclavicle -1.7583e-14 -2.83979e-16 0
rhumerus -40.9203 -5.40006 -66.712
rradius 53.6098 0 0
rwrist 29.4122 0 0
rhand -5.05396 -6.75798 0
rfingers 7.12502 0 0
rthumb 20.1654 -751.137 0
250
root 6.84804 16.0855 -25.7278 9.69313 43.1446 -1.55739
lfemur -35.0919 23.1416 -14.7901
ltibia 45.0154 0 0
lfoot -15.9597 -6.47908 0
ltoes 43.0358 0 0
rfemur -18.4098 0.759889 1.79256
rtibia 57.9856 0 0
rfoot 10.6485 -12.0872 0
rtoes 4.58912 0 0
lowerback 1.60375 -2.4455 -0.581844
upperback -0.719488 -3.22995 2.66743
thorax -1.44241 -1.59352 3.15353
lowerneck -10.0887 -6.79648 -1.5898
upperneck 2.26057 -8.89374 0.646872
head 2.58471 -4.41801 0.00221304
lclavicle -1.96229e-14 6.81546e-16 0
lhumerus -51.5993 -34.551 119.359
lradius 61.2886 0 0
lwrist 19.8288 0 0
lhand 8.04493 12.7369 0
lfingers 7.12502 0 0
lthumb 33.2668 39.6549 0
rclavicle -1.96229e-14 6.81546e-16 0
rhumerus -41.3403 -5.65784 -66.519
rradius 50.3185 0 0
rwrist 32.9898 0 0
rhand -8.12077 -5.47051 0
rfingers 7.12502 0 0
rthumb 17.3554 -751.202 0
251
root 6.9492 16.1192 -25.7176 9.63484 44.7739 -1.29449
lfemur -35.0296 22.5186 -15.6342
ltibia 44.5451 0 0
lfoot -16.0916 -7.18681 0
ltoes 46.4441 0 0
rfemur -18.041 1.94177 1.59576
rtibia 59.0376 0 0
rfoot 13.0226 -13.0639 0
rtoes 1.59442 0 0
lowerback 1.60985 -2.47433 -0.7392
upperback -0.730358 -3.27056 2.71784
thorax -1.44522 -1.61206 3.29477
lowerneck -9.98592 -7.13751 -1.72566
upperneck 2.33757 -9.33183 0.662579
head 2.59838 -4.63668 0.00724923
lclavicle -2.16628e-14 1.64707e-15 0
lhumerus -51.4735 -34.3173 119.289
lradius 61.3231 0 0
lwrist 19.8882 0 0
lhand 7.74574 12.5552 0
lfingers 7.12502 0 0
lthumb 32.9832 39.5411 0
rclavicle -2.16628e-14 1.64707e-15 0
rhumerus -41.7603 -5.91561 -66.3261
rradius 47.0272 0 0
rwrist 36.5674 0 0
rhand -11.1876 -4.18303 0
rfingers 7.12502 0 0
rthumb 14.5454 -751.268 0
